<svg xmlns="http://www.w3.org/2000/svg" viewBox="0 0 750 220">
  <style>
    .wire { stroke: #333; stroke-width: 2; fill: none; }
    .gate { fill: #e8f4fc; stroke: #2d6a9f; stroke-width: 2; }
    .gate-phase { fill: #f0e8ff; stroke: #6a2d9f; stroke-width: 2; }
    .gate-rx { fill: #ffe8e8; stroke: #9f2d2d; stroke-width: 2; }
    .gate-ry { fill: #e8ffe8; stroke: #2d9f2d; stroke-width: 2; }
    .gate-coupling { fill: #fff4e8; stroke: #9f6a2d; stroke-width: 2; }
    .label { font-family: 'Courier New', monospace; font-size: 14px; fill: #333; }
    .qubit-label { font-family: 'Courier New', monospace; font-size: 14px; font-weight: bold; fill: #333; }
    .gate-text { font-family: 'Courier New', monospace; font-size: 11px; fill: #333; text-anchor: middle; }
    .title { font-family: Arial, sans-serif; font-size: 16px; font-weight: bold; fill: #333; }
    .param { font-family: 'Courier New', monospace; font-size: 9px; fill: #666; text-anchor: middle; }
    .control { fill: #9f6a2d; }
    .coupling-line { stroke: #9f6a2d; stroke-width: 2; }
    .barrier { stroke: #999; stroke-width: 1; stroke-dasharray: 4,4; }
    .section-label { font-family: Arial, sans-serif; font-size: 10px; fill: #666; text-anchor: middle; }
  </style>

  <!-- Title -->
  <text x="375" y="25" class="title" text-anchor="middle">A-Gate: Single-Channel PN Neuron Circuit</text>

  <!-- E qubit wire -->
  <line x1="70" y1="90" x2="710" y2="90" class="wire"/>

  <!-- I qubit wire -->
  <line x1="70" y1="160" x2="710" y2="160" class="wire"/>

  <!-- Qubit labels -->
  <text x="15" y="88" class="qubit-label">q₀ (E)</text>
  <text x="15" y="165" class="qubit-label">q₁ (I)</text>

  <!-- Initial state indicators -->
  <text x="60" y="95" class="label">0</text>
  <text x="60" y="165" class="label">0</text>

  <!-- Barrier: Start -->
  <line x1="85" y1="60" x2="85" y2="190" class="barrier"/>
  <text x="85" y="205" class="section-label">Start</text>

  <!-- ========== E QUBIT (q0) GATES ========== -->

  <!-- H gate -->
  <rect x="100" y="70" width="32" height="40" rx="4" class="gate"/>
  <text x="116" y="95" class="gate-text">H</text>

  <!-- P(b) gate -->
  <rect x="145" y="70" width="36" height="40" rx="4" class="gate-phase"/>
  <text x="163" y="92" class="gate-text">P</text>
  <text x="163" y="103" class="param">(b)</text>

  <!-- RX(a) gate -->
  <rect x="195" y="70" width="44" height="40" rx="4" class="gate-rx"/>
  <text x="217" y="92" class="gate-text">Rx</text>
  <text x="217" y="103" class="param">(2a)</text>

  <!-- P(b) gate -->
  <rect x="253" y="70" width="36" height="40" rx="4" class="gate-phase"/>
  <text x="271" y="92" class="gate-text">P</text>
  <text x="271" y="103" class="param">(b)</text>

  <!-- H gate -->
  <rect x="303" y="70" width="32" height="40" rx="4" class="gate"/>
  <text x="319" y="95" class="gate-text">H</text>

  <!-- ========== I QUBIT (q1) GATES ========== -->

  <!-- H gate -->
  <rect x="100" y="140" width="32" height="40" rx="4" class="gate"/>
  <text x="116" y="165" class="gate-text">H</text>

  <!-- P(b) gate -->
  <rect x="145" y="140" width="36" height="40" rx="4" class="gate-phase"/>
  <text x="163" y="162" class="gate-text">P</text>
  <text x="163" y="173" class="param">(b)</text>

  <!-- RY(c) gate -->
  <rect x="195" y="140" width="44" height="40" rx="4" class="gate-ry"/>
  <text x="217" y="162" class="gate-text">Ry</text>
  <text x="217" y="173" class="param">(2c)</text>

  <!-- P(b) gate -->
  <rect x="253" y="140" width="36" height="40" rx="4" class="gate-phase"/>
  <text x="271" y="162" class="gate-text">P</text>
  <text x="271" y="173" class="param">(b)</text>

  <!-- H gate -->
  <rect x="303" y="140" width="32" height="40" rx="4" class="gate"/>
  <text x="319" y="165" class="gate-text">H</text>

  <!-- Barrier: Before E-I Coupling -->
  <line x1="355" y1="60" x2="355" y2="190" class="barrier"/>
  <text x="355" y="205" class="section-label">E-I Coupling</text>

  <!-- ========== E-I COUPLING GATES ========== -->

  <!-- CRY: Control on q0, Target on q1 -->
  <!-- Control dot on E (q0) -->
  <circle cx="400" cy="90" r="6" class="control"/>
  <!-- Vertical line connecting control to target -->
  <line x1="400" y1="96" x2="400" y2="140" class="coupling-line"/>
  <!-- Target gate on I (q1) -->
  <rect x="378" y="140" width="44" height="40" rx="4" class="gate-coupling"/>
  <text x="400" y="162" class="gate-text">Ry</text>
  <text x="400" y="173" class="param">(π/4)</text>

  <!-- CRZ: Control on q1, Target on q0 -->
  <!-- Control dot on I (q1) -->
  <circle cx="480" cy="160" r="6" class="control"/>
  <!-- Vertical line connecting control to target -->
  <line x1="480" y1="154" x2="480" y2="110" class="coupling-line"/>
  <!-- Target gate on E (q0) -->
  <rect x="458" y="70" width="44" height="40" rx="4" class="gate-coupling"/>
  <text x="480" y="92" class="gate-text">Rz</text>
  <text x="480" y="103" class="param">(π/4)</text>

  <!-- Barrier: End -->
  <line x1="530" y1="60" x2="530" y2="190" class="barrier"/>
  <text x="530" y="205" class="section-label">End</text>

  <!-- ========== LEGEND ========== -->
  <rect x="560" y="55" width="140" height="130" rx="6" fill="#f8f8f8" stroke="#ddd" stroke-width="1"/>
  <text x="630" y="72" class="section-label" style="font-weight: bold; font-size: 11px;">Parameters</text>

  <rect x="570" y="80" width="12" height="12" rx="2" class="gate-rx"/>
  <text x="590" y="90" class="param" style="text-anchor: start; font-size: 10px;">a: excitatory</text>

  <rect x="570" y="98" width="12" height="12" rx="2" class="gate-phase"/>
  <text x="590" y="108" class="param" style="text-anchor: start; font-size: 10px;">b: shared phase</text>

  <rect x="570" y="116" width="12" height="12" rx="2" class="gate-ry"/>
  <text x="590" y="126" class="param" style="text-anchor: start; font-size: 10px;">c: inhibitory</text>

  <line x1="570" y1="138" x2="690" y2="138" stroke="#ddd" stroke-width="1"/>
  <text x="630" y="152" class="section-label" style="font-weight: bold; font-size: 11px;">Gate Count: 14</text>
  <text x="630" y="165" class="param" style="font-size: 9px;">H:4  P:4  R:2  CR:2</text>
  <text x="630" y="178" class="param" style="font-size: 9px;">Depth: 7</text>
</svg>
